<mxfile host="app.diagrams.net" agent="Mozilla/5.0 (Windows NT 10.0; Win64; x64) AppleWebKit/537.36 (KHTML, like Gecko) Chrome/127.0.0.0 Safari/537.36" version="24.7.6">
  <diagram name="Page-1" id="0qOFrJ7TgRkaNfnl0Iz7">
    <mxGraphModel dx="3520" dy="4234" grid="1" gridSize="10" guides="1" tooltips="1" connect="1" arrows="1" fold="1" page="1" pageScale="1" pageWidth="850" pageHeight="1100" math="0" shadow="0">
      <root>
        <mxCell id="0" />
        <mxCell id="1" parent="0" />
        <mxCell id="_hwqhM2ODTQjuhR24x__-1" value="" style="rounded=0;whiteSpace=wrap;html=1;fillColor=#ffe6cc;strokeColor=#d79b00;" vertex="1" parent="1">
          <mxGeometry x="40" y="320" width="80" height="80" as="geometry" />
        </mxCell>
        <mxCell id="_hwqhM2ODTQjuhR24x__-2" value="" style="rounded=0;whiteSpace=wrap;html=1;fillColor=#ffe6cc;strokeColor=#d79b00;" vertex="1" parent="1">
          <mxGeometry x="120" y="320" width="80" height="80" as="geometry" />
        </mxCell>
        <mxCell id="_hwqhM2ODTQjuhR24x__-3" value="" style="rounded=0;whiteSpace=wrap;html=1;fillColor=#B5739D;strokeColor=#B5739D;" vertex="1" parent="1">
          <mxGeometry x="40" y="400" width="80" height="80" as="geometry" />
        </mxCell>
        <mxCell id="_hwqhM2ODTQjuhR24x__-4" value="" style="rounded=0;whiteSpace=wrap;html=1;fillColor=#B5739D;strokeColor=#B5739D;" vertex="1" parent="1">
          <mxGeometry x="120" y="400" width="80" height="80" as="geometry" />
        </mxCell>
        <mxCell id="_hwqhM2ODTQjuhR24x__-5" value="" style="rounded=0;whiteSpace=wrap;html=1;fillColor=#ffe6cc;strokeColor=#d79b00;" vertex="1" parent="1">
          <mxGeometry x="200" y="320" width="80" height="80" as="geometry" />
        </mxCell>
        <mxCell id="_hwqhM2ODTQjuhR24x__-6" value="" style="rounded=0;whiteSpace=wrap;html=1;fillColor=#ffe6cc;strokeColor=#d79b00;" vertex="1" parent="1">
          <mxGeometry x="280" y="320" width="80" height="80" as="geometry" />
        </mxCell>
        <mxCell id="_hwqhM2ODTQjuhR24x__-7" value="" style="rounded=0;whiteSpace=wrap;html=1;fillColor=#B5739D;strokeColor=#B5739D;" vertex="1" parent="1">
          <mxGeometry x="200" y="400" width="80" height="80" as="geometry" />
        </mxCell>
        <mxCell id="_hwqhM2ODTQjuhR24x__-8" value="" style="rounded=0;whiteSpace=wrap;html=1;fillColor=#B5739D;strokeColor=#B5739D;" vertex="1" parent="1">
          <mxGeometry x="280" y="400" width="80" height="80" as="geometry" />
        </mxCell>
        <mxCell id="_hwqhM2ODTQjuhR24x__-9" value="" style="rounded=0;whiteSpace=wrap;html=1;fillColor=#ffe6cc;strokeColor=#d79b00;" vertex="1" parent="1">
          <mxGeometry x="40" y="480" width="80" height="80" as="geometry" />
        </mxCell>
        <mxCell id="_hwqhM2ODTQjuhR24x__-10" value="" style="rounded=0;whiteSpace=wrap;html=1;fillColor=#ffe6cc;strokeColor=#d79b00;" vertex="1" parent="1">
          <mxGeometry x="120" y="480" width="80" height="80" as="geometry" />
        </mxCell>
        <mxCell id="_hwqhM2ODTQjuhR24x__-11" value="" style="rounded=0;whiteSpace=wrap;html=1;fillColor=#ffe6cc;strokeColor=#d79b00;" vertex="1" parent="1">
          <mxGeometry x="40" y="560" width="80" height="80" as="geometry" />
        </mxCell>
        <mxCell id="_hwqhM2ODTQjuhR24x__-12" value="" style="rounded=0;whiteSpace=wrap;html=1;fillColor=#ffe6cc;strokeColor=#d79b00;" vertex="1" parent="1">
          <mxGeometry x="120" y="560" width="80" height="80" as="geometry" />
        </mxCell>
        <mxCell id="_hwqhM2ODTQjuhR24x__-13" value="" style="rounded=0;whiteSpace=wrap;html=1;fillColor=#ffe6cc;strokeColor=#d79b00;" vertex="1" parent="1">
          <mxGeometry x="200" y="480" width="80" height="80" as="geometry" />
        </mxCell>
        <mxCell id="_hwqhM2ODTQjuhR24x__-14" value="" style="rounded=0;whiteSpace=wrap;html=1;fillColor=#ffe6cc;strokeColor=#d79b00;" vertex="1" parent="1">
          <mxGeometry x="280" y="480" width="80" height="80" as="geometry" />
        </mxCell>
        <mxCell id="_hwqhM2ODTQjuhR24x__-15" value="" style="rounded=0;whiteSpace=wrap;html=1;fillColor=#ffe6cc;strokeColor=#d79b00;" vertex="1" parent="1">
          <mxGeometry x="200" y="560" width="80" height="80" as="geometry" />
        </mxCell>
        <mxCell id="_hwqhM2ODTQjuhR24x__-16" value="" style="rounded=0;whiteSpace=wrap;html=1;fillColor=#ffe6cc;strokeColor=#d79b00;" vertex="1" parent="1">
          <mxGeometry x="280" y="560" width="80" height="80" as="geometry" />
        </mxCell>
        <mxCell id="_hwqhM2ODTQjuhR24x__-17" value="" style="rounded=0;whiteSpace=wrap;html=1;fillColor=#ffe6cc;strokeColor=#d79b00;" vertex="1" parent="1">
          <mxGeometry x="360" y="320" width="80" height="80" as="geometry" />
        </mxCell>
        <mxCell id="_hwqhM2ODTQjuhR24x__-18" value="" style="rounded=0;whiteSpace=wrap;html=1;fillColor=#ffe6cc;strokeColor=#d79b00;" vertex="1" parent="1">
          <mxGeometry x="440" y="320" width="80" height="80" as="geometry" />
        </mxCell>
        <mxCell id="_hwqhM2ODTQjuhR24x__-19" value="" style="rounded=0;whiteSpace=wrap;html=1;fillColor=#B5739D;strokeColor=#B5739D;" vertex="1" parent="1">
          <mxGeometry x="360" y="400" width="80" height="80" as="geometry" />
        </mxCell>
        <mxCell id="_hwqhM2ODTQjuhR24x__-20" value="" style="rounded=0;whiteSpace=wrap;html=1;fillColor=#B5739D;strokeColor=#B5739D;" vertex="1" parent="1">
          <mxGeometry x="440" y="400" width="80" height="80" as="geometry" />
        </mxCell>
        <mxCell id="_hwqhM2ODTQjuhR24x__-21" value="" style="rounded=0;whiteSpace=wrap;html=1;fillColor=#ffe6cc;strokeColor=#d79b00;" vertex="1" parent="1">
          <mxGeometry x="520" y="320" width="80" height="80" as="geometry" />
        </mxCell>
        <mxCell id="_hwqhM2ODTQjuhR24x__-22" value="" style="rounded=0;whiteSpace=wrap;html=1;fillColor=#ffe6cc;strokeColor=#d79b00;" vertex="1" parent="1">
          <mxGeometry x="600" y="320" width="80" height="80" as="geometry" />
        </mxCell>
        <mxCell id="_hwqhM2ODTQjuhR24x__-23" value="" style="rounded=0;whiteSpace=wrap;html=1;fillColor=#B5739D;strokeColor=#B5739D;" vertex="1" parent="1">
          <mxGeometry x="520" y="400" width="80" height="80" as="geometry" />
        </mxCell>
        <mxCell id="_hwqhM2ODTQjuhR24x__-24" value="" style="rounded=0;whiteSpace=wrap;html=1;fillColor=#B5739D;strokeColor=#B5739D;" vertex="1" parent="1">
          <mxGeometry x="600" y="400" width="80" height="80" as="geometry" />
        </mxCell>
        <mxCell id="_hwqhM2ODTQjuhR24x__-25" value="" style="rounded=0;whiteSpace=wrap;html=1;fillColor=#ffe6cc;strokeColor=#d79b00;" vertex="1" parent="1">
          <mxGeometry x="360" y="480" width="80" height="80" as="geometry" />
        </mxCell>
        <mxCell id="_hwqhM2ODTQjuhR24x__-26" value="" style="rounded=0;whiteSpace=wrap;html=1;fillColor=#ffe6cc;strokeColor=#d79b00;" vertex="1" parent="1">
          <mxGeometry x="440" y="480" width="80" height="80" as="geometry" />
        </mxCell>
        <mxCell id="_hwqhM2ODTQjuhR24x__-27" value="" style="rounded=0;whiteSpace=wrap;html=1;fillColor=#ffe6cc;strokeColor=#d79b00;" vertex="1" parent="1">
          <mxGeometry x="360" y="560" width="80" height="80" as="geometry" />
        </mxCell>
        <mxCell id="_hwqhM2ODTQjuhR24x__-28" value="" style="rounded=0;whiteSpace=wrap;html=1;fillColor=#ffe6cc;strokeColor=#d79b00;" vertex="1" parent="1">
          <mxGeometry x="440" y="560" width="80" height="80" as="geometry" />
        </mxCell>
        <mxCell id="_hwqhM2ODTQjuhR24x__-29" value="" style="rounded=0;whiteSpace=wrap;html=1;fillColor=#ffe6cc;strokeColor=#d79b00;" vertex="1" parent="1">
          <mxGeometry x="520" y="480" width="80" height="80" as="geometry" />
        </mxCell>
        <mxCell id="_hwqhM2ODTQjuhR24x__-30" value="" style="rounded=0;whiteSpace=wrap;html=1;fillColor=#ffe6cc;strokeColor=#d79b00;" vertex="1" parent="1">
          <mxGeometry x="600" y="480" width="80" height="80" as="geometry" />
        </mxCell>
        <mxCell id="_hwqhM2ODTQjuhR24x__-31" value="" style="rounded=0;whiteSpace=wrap;html=1;fillColor=#ffe6cc;strokeColor=#d79b00;" vertex="1" parent="1">
          <mxGeometry x="520" y="560" width="80" height="80" as="geometry" />
        </mxCell>
        <mxCell id="_hwqhM2ODTQjuhR24x__-32" value="" style="rounded=0;whiteSpace=wrap;html=1;fillColor=#ffe6cc;strokeColor=#d79b00;" vertex="1" parent="1">
          <mxGeometry x="600" y="560" width="80" height="80" as="geometry" />
        </mxCell>
        <mxCell id="_hwqhM2ODTQjuhR24x__-33" value="" style="rounded=0;whiteSpace=wrap;html=1;fillColor=#ffe6cc;strokeColor=#d79b00;" vertex="1" parent="1">
          <mxGeometry x="880" y="320" width="80" height="80" as="geometry" />
        </mxCell>
        <mxCell id="_hwqhM2ODTQjuhR24x__-34" value="" style="rounded=0;whiteSpace=wrap;html=1;fillColor=#ffe6cc;strokeColor=#d79b00;" vertex="1" parent="1">
          <mxGeometry x="960" y="320" width="80" height="80" as="geometry" />
        </mxCell>
        <mxCell id="_hwqhM2ODTQjuhR24x__-35" value="" style="rounded=0;whiteSpace=wrap;html=1;fillColor=#B5739D;strokeColor=#B5739D;" vertex="1" parent="1">
          <mxGeometry x="880" y="400" width="80" height="80" as="geometry" />
        </mxCell>
        <mxCell id="_hwqhM2ODTQjuhR24x__-36" value="" style="rounded=0;whiteSpace=wrap;html=1;fillColor=#B5739D;strokeColor=#B5739D;" vertex="1" parent="1">
          <mxGeometry x="960" y="400" width="80" height="80" as="geometry" />
        </mxCell>
        <mxCell id="_hwqhM2ODTQjuhR24x__-37" value="" style="rounded=0;whiteSpace=wrap;html=1;fillColor=#ffe6cc;strokeColor=#d79b00;" vertex="1" parent="1">
          <mxGeometry x="1040" y="320" width="80" height="80" as="geometry" />
        </mxCell>
        <mxCell id="_hwqhM2ODTQjuhR24x__-38" value="" style="rounded=0;whiteSpace=wrap;html=1;fillColor=#ffe6cc;strokeColor=#d79b00;" vertex="1" parent="1">
          <mxGeometry x="1120" y="320" width="80" height="80" as="geometry" />
        </mxCell>
        <mxCell id="_hwqhM2ODTQjuhR24x__-39" value="" style="rounded=0;whiteSpace=wrap;html=1;fillColor=#B5739D;strokeColor=#B5739D;" vertex="1" parent="1">
          <mxGeometry x="1040" y="400" width="80" height="80" as="geometry" />
        </mxCell>
        <mxCell id="_hwqhM2ODTQjuhR24x__-40" value="" style="rounded=0;whiteSpace=wrap;html=1;fillColor=#B5739D;strokeColor=#B5739D;" vertex="1" parent="1">
          <mxGeometry x="1120" y="400" width="80" height="80" as="geometry" />
        </mxCell>
        <mxCell id="_hwqhM2ODTQjuhR24x__-41" value="" style="rounded=0;whiteSpace=wrap;html=1;fillColor=#ffe6cc;strokeColor=#d79b00;" vertex="1" parent="1">
          <mxGeometry x="880" y="480" width="80" height="80" as="geometry" />
        </mxCell>
        <mxCell id="_hwqhM2ODTQjuhR24x__-42" value="" style="rounded=0;whiteSpace=wrap;html=1;fillColor=#ffe6cc;strokeColor=#d79b00;" vertex="1" parent="1">
          <mxGeometry x="960" y="480" width="80" height="80" as="geometry" />
        </mxCell>
        <mxCell id="_hwqhM2ODTQjuhR24x__-43" value="" style="rounded=0;whiteSpace=wrap;html=1;fillColor=#ffe6cc;strokeColor=#d79b00;" vertex="1" parent="1">
          <mxGeometry x="880" y="560" width="80" height="80" as="geometry" />
        </mxCell>
        <mxCell id="_hwqhM2ODTQjuhR24x__-44" value="" style="rounded=0;whiteSpace=wrap;html=1;fillColor=#ffe6cc;strokeColor=#d79b00;" vertex="1" parent="1">
          <mxGeometry x="960" y="560" width="80" height="80" as="geometry" />
        </mxCell>
        <mxCell id="_hwqhM2ODTQjuhR24x__-45" value="" style="rounded=0;whiteSpace=wrap;html=1;fillColor=#ffe6cc;strokeColor=#d79b00;" vertex="1" parent="1">
          <mxGeometry x="1040" y="480" width="80" height="80" as="geometry" />
        </mxCell>
        <mxCell id="_hwqhM2ODTQjuhR24x__-46" value="" style="rounded=0;whiteSpace=wrap;html=1;fillColor=#ffe6cc;strokeColor=#d79b00;" vertex="1" parent="1">
          <mxGeometry x="1120" y="480" width="80" height="80" as="geometry" />
        </mxCell>
        <mxCell id="_hwqhM2ODTQjuhR24x__-47" value="" style="rounded=0;whiteSpace=wrap;html=1;fillColor=#ffe6cc;strokeColor=#d79b00;" vertex="1" parent="1">
          <mxGeometry x="1040" y="560" width="80" height="80" as="geometry" />
        </mxCell>
        <mxCell id="_hwqhM2ODTQjuhR24x__-48" value="" style="rounded=0;whiteSpace=wrap;html=1;fillColor=#ffe6cc;strokeColor=#d79b00;" vertex="1" parent="1">
          <mxGeometry x="1120" y="560" width="80" height="80" as="geometry" />
        </mxCell>
        <mxCell id="_hwqhM2ODTQjuhR24x__-49" value="" style="rounded=0;whiteSpace=wrap;html=1;fillColor=#ffe6cc;strokeColor=#d79b00;" vertex="1" parent="1">
          <mxGeometry x="1200" y="320" width="80" height="80" as="geometry" />
        </mxCell>
        <mxCell id="_hwqhM2ODTQjuhR24x__-50" value="" style="rounded=0;whiteSpace=wrap;html=1;fillColor=#ffe6cc;strokeColor=#d79b00;" vertex="1" parent="1">
          <mxGeometry x="1280" y="320" width="80" height="80" as="geometry" />
        </mxCell>
        <mxCell id="_hwqhM2ODTQjuhR24x__-51" value="" style="rounded=0;whiteSpace=wrap;html=1;fillColor=#B5739D;strokeColor=#B5739D;" vertex="1" parent="1">
          <mxGeometry x="1200" y="400" width="80" height="80" as="geometry" />
        </mxCell>
        <mxCell id="_hwqhM2ODTQjuhR24x__-52" value="" style="rounded=0;whiteSpace=wrap;html=1;fillColor=#B5739D;strokeColor=#B5739D;" vertex="1" parent="1">
          <mxGeometry x="1280" y="400" width="80" height="80" as="geometry" />
        </mxCell>
        <mxCell id="_hwqhM2ODTQjuhR24x__-53" value="" style="rounded=0;whiteSpace=wrap;html=1;fillColor=#ffe6cc;strokeColor=#d79b00;" vertex="1" parent="1">
          <mxGeometry x="1360" y="320" width="80" height="80" as="geometry" />
        </mxCell>
        <mxCell id="_hwqhM2ODTQjuhR24x__-54" value="" style="rounded=0;whiteSpace=wrap;html=1;fillColor=#ffe6cc;strokeColor=#d79b00;" vertex="1" parent="1">
          <mxGeometry x="1440" y="320" width="80" height="80" as="geometry" />
        </mxCell>
        <mxCell id="_hwqhM2ODTQjuhR24x__-55" value="" style="rounded=0;whiteSpace=wrap;html=1;fillColor=#B5739D;strokeColor=#B5739D;" vertex="1" parent="1">
          <mxGeometry x="1360" y="400" width="80" height="80" as="geometry" />
        </mxCell>
        <mxCell id="_hwqhM2ODTQjuhR24x__-56" value="" style="rounded=0;whiteSpace=wrap;html=1;fillColor=#B5739D;strokeColor=#B5739D;" vertex="1" parent="1">
          <mxGeometry x="1440" y="400" width="80" height="80" as="geometry" />
        </mxCell>
        <mxCell id="_hwqhM2ODTQjuhR24x__-57" value="" style="rounded=0;whiteSpace=wrap;html=1;fillColor=#ffe6cc;strokeColor=#d79b00;" vertex="1" parent="1">
          <mxGeometry x="1200" y="480" width="80" height="80" as="geometry" />
        </mxCell>
        <mxCell id="_hwqhM2ODTQjuhR24x__-58" value="" style="rounded=0;whiteSpace=wrap;html=1;fillColor=#ffe6cc;strokeColor=#d79b00;" vertex="1" parent="1">
          <mxGeometry x="1280" y="480" width="80" height="80" as="geometry" />
        </mxCell>
        <mxCell id="_hwqhM2ODTQjuhR24x__-59" value="" style="rounded=0;whiteSpace=wrap;html=1;fillColor=#ffe6cc;strokeColor=#d79b00;" vertex="1" parent="1">
          <mxGeometry x="1200" y="560" width="80" height="80" as="geometry" />
        </mxCell>
        <mxCell id="_hwqhM2ODTQjuhR24x__-60" value="" style="rounded=0;whiteSpace=wrap;html=1;fillColor=#ffe6cc;strokeColor=#d79b00;" vertex="1" parent="1">
          <mxGeometry x="1280" y="560" width="80" height="80" as="geometry" />
        </mxCell>
        <mxCell id="_hwqhM2ODTQjuhR24x__-61" value="" style="rounded=0;whiteSpace=wrap;html=1;fillColor=#ffe6cc;strokeColor=#d79b00;" vertex="1" parent="1">
          <mxGeometry x="1360" y="480" width="80" height="80" as="geometry" />
        </mxCell>
        <mxCell id="_hwqhM2ODTQjuhR24x__-62" value="" style="rounded=0;whiteSpace=wrap;html=1;fillColor=#ffe6cc;strokeColor=#d79b00;" vertex="1" parent="1">
          <mxGeometry x="1440" y="480" width="80" height="80" as="geometry" />
        </mxCell>
        <mxCell id="_hwqhM2ODTQjuhR24x__-63" value="" style="rounded=0;whiteSpace=wrap;html=1;fillColor=#ffe6cc;strokeColor=#d79b00;" vertex="1" parent="1">
          <mxGeometry x="1360" y="560" width="80" height="80" as="geometry" />
        </mxCell>
        <mxCell id="_hwqhM2ODTQjuhR24x__-64" value="" style="rounded=0;whiteSpace=wrap;html=1;fillColor=#ffe6cc;strokeColor=#d79b00;" vertex="1" parent="1">
          <mxGeometry x="1440" y="560" width="80" height="80" as="geometry" />
        </mxCell>
        <mxCell id="_hwqhM2ODTQjuhR24x__-65" value="" style="endArrow=none;dashed=1;html=1;rounded=0;strokeWidth=6;dashPattern=1 4;fillColor=#ffe6cc;strokeColor=#B5739D;" edge="1" parent="1">
          <mxGeometry width="50" height="50" relative="1" as="geometry">
            <mxPoint x="720" y="480" as="sourcePoint" />
            <mxPoint x="840" y="480" as="targetPoint" />
          </mxGeometry>
        </mxCell>
        <mxCell id="_hwqhM2ODTQjuhR24x__-66" value="" style="rounded=0;whiteSpace=wrap;html=1;fillColor=#dae8fc;strokeColor=#6c8ebf;" vertex="1" parent="1">
          <mxGeometry x="1720" y="-240" width="80" height="80" as="geometry" />
        </mxCell>
        <mxCell id="_hwqhM2ODTQjuhR24x__-67" value="" style="rounded=0;whiteSpace=wrap;html=1;fillColor=#B5739D;strokeColor=#6c8ebf;" vertex="1" parent="1">
          <mxGeometry x="1800" y="-240" width="80" height="80" as="geometry" />
        </mxCell>
        <mxCell id="_hwqhM2ODTQjuhR24x__-68" value="" style="rounded=0;whiteSpace=wrap;html=1;fillColor=#dae8fc;strokeColor=#6c8ebf;" vertex="1" parent="1">
          <mxGeometry x="1720" y="-160" width="80" height="80" as="geometry" />
        </mxCell>
        <mxCell id="_hwqhM2ODTQjuhR24x__-69" value="" style="rounded=0;whiteSpace=wrap;html=1;fillColor=#B5739D;strokeColor=#6c8ebf;" vertex="1" parent="1">
          <mxGeometry x="1800" y="-160" width="80" height="80" as="geometry" />
        </mxCell>
        <mxCell id="_hwqhM2ODTQjuhR24x__-70" value="" style="rounded=0;whiteSpace=wrap;html=1;fillColor=#dae8fc;strokeColor=#6c8ebf;" vertex="1" parent="1">
          <mxGeometry x="1880" y="-240" width="80" height="80" as="geometry" />
        </mxCell>
        <mxCell id="_hwqhM2ODTQjuhR24x__-71" value="" style="rounded=0;whiteSpace=wrap;html=1;fillColor=#dae8fc;strokeColor=#6c8ebf;" vertex="1" parent="1">
          <mxGeometry x="1960" y="-240" width="80" height="80" as="geometry" />
        </mxCell>
        <mxCell id="_hwqhM2ODTQjuhR24x__-72" value="" style="rounded=0;whiteSpace=wrap;html=1;fillColor=#dae8fc;strokeColor=#6c8ebf;" vertex="1" parent="1">
          <mxGeometry x="1880" y="-160" width="80" height="80" as="geometry" />
        </mxCell>
        <mxCell id="_hwqhM2ODTQjuhR24x__-73" value="" style="rounded=0;whiteSpace=wrap;html=1;fillColor=#dae8fc;strokeColor=#6c8ebf;" vertex="1" parent="1">
          <mxGeometry x="1960" y="-160" width="80" height="80" as="geometry" />
        </mxCell>
        <mxCell id="_hwqhM2ODTQjuhR24x__-74" value="" style="rounded=0;whiteSpace=wrap;html=1;fillColor=#dae8fc;strokeColor=#6c8ebf;" vertex="1" parent="1">
          <mxGeometry x="1720" y="-80" width="80" height="80" as="geometry" />
        </mxCell>
        <mxCell id="_hwqhM2ODTQjuhR24x__-75" value="" style="rounded=0;whiteSpace=wrap;html=1;fillColor=#B5739D;strokeColor=#6c8ebf;" vertex="1" parent="1">
          <mxGeometry x="1800" y="-80" width="80" height="80" as="geometry" />
        </mxCell>
        <mxCell id="_hwqhM2ODTQjuhR24x__-76" value="" style="rounded=0;whiteSpace=wrap;html=1;fillColor=#dae8fc;strokeColor=#6c8ebf;" vertex="1" parent="1">
          <mxGeometry x="1720" width="80" height="80" as="geometry" />
        </mxCell>
        <mxCell id="_hwqhM2ODTQjuhR24x__-77" value="" style="rounded=0;whiteSpace=wrap;html=1;fillColor=#B5739D;strokeColor=#6c8ebf;" vertex="1" parent="1">
          <mxGeometry x="1800" width="80" height="80" as="geometry" />
        </mxCell>
        <mxCell id="_hwqhM2ODTQjuhR24x__-78" value="" style="rounded=0;whiteSpace=wrap;html=1;fillColor=#dae8fc;strokeColor=#6c8ebf;" vertex="1" parent="1">
          <mxGeometry x="1880" y="-80" width="80" height="80" as="geometry" />
        </mxCell>
        <mxCell id="_hwqhM2ODTQjuhR24x__-79" value="" style="rounded=0;whiteSpace=wrap;html=1;fillColor=#dae8fc;strokeColor=#6c8ebf;" vertex="1" parent="1">
          <mxGeometry x="1960" y="-80" width="80" height="80" as="geometry" />
        </mxCell>
        <mxCell id="_hwqhM2ODTQjuhR24x__-80" value="" style="rounded=0;whiteSpace=wrap;html=1;fillColor=#dae8fc;strokeColor=#6c8ebf;" vertex="1" parent="1">
          <mxGeometry x="1880" width="80" height="80" as="geometry" />
        </mxCell>
        <mxCell id="_hwqhM2ODTQjuhR24x__-81" value="" style="rounded=0;whiteSpace=wrap;html=1;fillColor=#dae8fc;strokeColor=#6c8ebf;" vertex="1" parent="1">
          <mxGeometry x="1960" width="80" height="80" as="geometry" />
        </mxCell>
        <mxCell id="_hwqhM2ODTQjuhR24x__-82" value="" style="rounded=0;whiteSpace=wrap;html=1;fillColor=#dae8fc;strokeColor=#6c8ebf;" vertex="1" parent="1">
          <mxGeometry x="2200" y="-240" width="80" height="80" as="geometry" />
        </mxCell>
        <mxCell id="_hwqhM2ODTQjuhR24x__-83" value="" style="rounded=0;whiteSpace=wrap;html=1;fillColor=#dae8fc;strokeColor=#6c8ebf;" vertex="1" parent="1">
          <mxGeometry x="2280" y="-240" width="80" height="80" as="geometry" />
        </mxCell>
        <mxCell id="_hwqhM2ODTQjuhR24x__-84" value="" style="rounded=0;whiteSpace=wrap;html=1;fillColor=#dae8fc;strokeColor=#6c8ebf;" vertex="1" parent="1">
          <mxGeometry x="2200" y="-160" width="80" height="80" as="geometry" />
        </mxCell>
        <mxCell id="_hwqhM2ODTQjuhR24x__-85" value="" style="rounded=0;whiteSpace=wrap;html=1;fillColor=#dae8fc;strokeColor=#6c8ebf;" vertex="1" parent="1">
          <mxGeometry x="2280" y="-160" width="80" height="80" as="geometry" />
        </mxCell>
        <mxCell id="_hwqhM2ODTQjuhR24x__-86" value="" style="rounded=0;whiteSpace=wrap;html=1;fillColor=#dae8fc;strokeColor=#6c8ebf;" vertex="1" parent="1">
          <mxGeometry x="2360" y="-240" width="80" height="80" as="geometry" />
        </mxCell>
        <mxCell id="_hwqhM2ODTQjuhR24x__-87" value="" style="rounded=0;whiteSpace=wrap;html=1;fillColor=#dae8fc;strokeColor=#6c8ebf;" vertex="1" parent="1">
          <mxGeometry x="2440" y="-240" width="80" height="80" as="geometry" />
        </mxCell>
        <mxCell id="_hwqhM2ODTQjuhR24x__-88" value="" style="rounded=0;whiteSpace=wrap;html=1;fillColor=#dae8fc;strokeColor=#6c8ebf;" vertex="1" parent="1">
          <mxGeometry x="2360" y="-160" width="80" height="80" as="geometry" />
        </mxCell>
        <mxCell id="_hwqhM2ODTQjuhR24x__-89" value="" style="rounded=0;whiteSpace=wrap;html=1;fillColor=#dae8fc;strokeColor=#6c8ebf;" vertex="1" parent="1">
          <mxGeometry x="2440" y="-160" width="80" height="80" as="geometry" />
        </mxCell>
        <mxCell id="_hwqhM2ODTQjuhR24x__-90" value="" style="rounded=0;whiteSpace=wrap;html=1;fillColor=#dae8fc;strokeColor=#6c8ebf;" vertex="1" parent="1">
          <mxGeometry x="2200" y="-80" width="80" height="80" as="geometry" />
        </mxCell>
        <mxCell id="_hwqhM2ODTQjuhR24x__-91" value="" style="rounded=0;whiteSpace=wrap;html=1;fillColor=#dae8fc;strokeColor=#6c8ebf;" vertex="1" parent="1">
          <mxGeometry x="2280" y="-80" width="80" height="80" as="geometry" />
        </mxCell>
        <mxCell id="_hwqhM2ODTQjuhR24x__-92" value="" style="rounded=0;whiteSpace=wrap;html=1;fillColor=#dae8fc;strokeColor=#6c8ebf;" vertex="1" parent="1">
          <mxGeometry x="2200" width="80" height="80" as="geometry" />
        </mxCell>
        <mxCell id="_hwqhM2ODTQjuhR24x__-93" value="" style="rounded=0;whiteSpace=wrap;html=1;fillColor=#dae8fc;strokeColor=#6c8ebf;" vertex="1" parent="1">
          <mxGeometry x="2280" width="80" height="80" as="geometry" />
        </mxCell>
        <mxCell id="_hwqhM2ODTQjuhR24x__-94" value="" style="rounded=0;whiteSpace=wrap;html=1;fillColor=#dae8fc;strokeColor=#6c8ebf;" vertex="1" parent="1">
          <mxGeometry x="2360" y="-80" width="80" height="80" as="geometry" />
        </mxCell>
        <mxCell id="_hwqhM2ODTQjuhR24x__-95" value="" style="rounded=0;whiteSpace=wrap;html=1;fillColor=#dae8fc;strokeColor=#6c8ebf;" vertex="1" parent="1">
          <mxGeometry x="2440" y="-80" width="80" height="80" as="geometry" />
        </mxCell>
        <mxCell id="_hwqhM2ODTQjuhR24x__-96" value="" style="rounded=0;whiteSpace=wrap;html=1;fillColor=#dae8fc;strokeColor=#6c8ebf;" vertex="1" parent="1">
          <mxGeometry x="2360" width="80" height="80" as="geometry" />
        </mxCell>
        <mxCell id="_hwqhM2ODTQjuhR24x__-97" value="" style="rounded=0;whiteSpace=wrap;html=1;fillColor=#dae8fc;strokeColor=#6c8ebf;" vertex="1" parent="1">
          <mxGeometry x="2440" width="80" height="80" as="geometry" />
        </mxCell>
        <mxCell id="_hwqhM2ODTQjuhR24x__-98" value="" style="endArrow=none;dashed=1;html=1;rounded=0;strokeWidth=6;dashPattern=1 4;fillColor=#dae8fc;strokeColor=#6c8ebf;" edge="1" parent="1">
          <mxGeometry width="50" height="50" relative="1" as="geometry">
            <mxPoint x="2065" y="-81.04999999999995" as="sourcePoint" />
            <mxPoint x="2185" y="-81.04999999999995" as="targetPoint" />
          </mxGeometry>
        </mxCell>
        <mxCell id="_hwqhM2ODTQjuhR24x__-99" value="" style="rounded=0;whiteSpace=wrap;html=1;fillColor=#ffe6cc;strokeColor=#d79b00;" vertex="1" parent="1">
          <mxGeometry x="40" y="760" width="80" height="80" as="geometry" />
        </mxCell>
        <mxCell id="_hwqhM2ODTQjuhR24x__-100" value="" style="rounded=0;whiteSpace=wrap;html=1;fillColor=#ffe6cc;strokeColor=#d79b00;" vertex="1" parent="1">
          <mxGeometry x="120" y="760" width="80" height="80" as="geometry" />
        </mxCell>
        <mxCell id="_hwqhM2ODTQjuhR24x__-101" value="" style="rounded=0;whiteSpace=wrap;html=1;fillColor=#ffe6cc;strokeColor=#d79b00;" vertex="1" parent="1">
          <mxGeometry x="40" y="840" width="80" height="80" as="geometry" />
        </mxCell>
        <mxCell id="_hwqhM2ODTQjuhR24x__-102" value="" style="rounded=0;whiteSpace=wrap;html=1;fillColor=#ffe6cc;strokeColor=#d79b00;" vertex="1" parent="1">
          <mxGeometry x="120" y="840" width="80" height="80" as="geometry" />
        </mxCell>
        <mxCell id="_hwqhM2ODTQjuhR24x__-103" value="" style="rounded=0;whiteSpace=wrap;html=1;fillColor=#ffe6cc;strokeColor=#d79b00;" vertex="1" parent="1">
          <mxGeometry x="200" y="760" width="80" height="80" as="geometry" />
        </mxCell>
        <mxCell id="_hwqhM2ODTQjuhR24x__-104" value="" style="rounded=0;whiteSpace=wrap;html=1;fillColor=#ffe6cc;strokeColor=#d79b00;" vertex="1" parent="1">
          <mxGeometry x="280" y="760" width="80" height="80" as="geometry" />
        </mxCell>
        <mxCell id="_hwqhM2ODTQjuhR24x__-105" value="" style="rounded=0;whiteSpace=wrap;html=1;fillColor=#ffe6cc;strokeColor=#d79b00;" vertex="1" parent="1">
          <mxGeometry x="200" y="840" width="80" height="80" as="geometry" />
        </mxCell>
        <mxCell id="_hwqhM2ODTQjuhR24x__-106" value="" style="rounded=0;whiteSpace=wrap;html=1;fillColor=#ffe6cc;strokeColor=#d79b00;" vertex="1" parent="1">
          <mxGeometry x="280" y="840" width="80" height="80" as="geometry" />
        </mxCell>
        <mxCell id="_hwqhM2ODTQjuhR24x__-107" value="" style="rounded=0;whiteSpace=wrap;html=1;fillColor=#ffe6cc;strokeColor=#d79b00;" vertex="1" parent="1">
          <mxGeometry x="40" y="920" width="80" height="80" as="geometry" />
        </mxCell>
        <mxCell id="_hwqhM2ODTQjuhR24x__-108" value="" style="rounded=0;whiteSpace=wrap;html=1;fillColor=#ffe6cc;strokeColor=#d79b00;" vertex="1" parent="1">
          <mxGeometry x="120" y="920" width="80" height="80" as="geometry" />
        </mxCell>
        <mxCell id="_hwqhM2ODTQjuhR24x__-109" value="" style="rounded=0;whiteSpace=wrap;html=1;fillColor=#ffe6cc;strokeColor=#d79b00;" vertex="1" parent="1">
          <mxGeometry x="40" y="1000" width="80" height="80" as="geometry" />
        </mxCell>
        <mxCell id="_hwqhM2ODTQjuhR24x__-110" value="" style="rounded=0;whiteSpace=wrap;html=1;fillColor=#ffe6cc;strokeColor=#d79b00;" vertex="1" parent="1">
          <mxGeometry x="120" y="1000" width="80" height="80" as="geometry" />
        </mxCell>
        <mxCell id="_hwqhM2ODTQjuhR24x__-111" value="" style="rounded=0;whiteSpace=wrap;html=1;fillColor=#ffe6cc;strokeColor=#d79b00;" vertex="1" parent="1">
          <mxGeometry x="200" y="920" width="80" height="80" as="geometry" />
        </mxCell>
        <mxCell id="_hwqhM2ODTQjuhR24x__-112" value="" style="rounded=0;whiteSpace=wrap;html=1;fillColor=#ffe6cc;strokeColor=#d79b00;" vertex="1" parent="1">
          <mxGeometry x="280" y="920" width="80" height="80" as="geometry" />
        </mxCell>
        <mxCell id="_hwqhM2ODTQjuhR24x__-113" value="" style="rounded=0;whiteSpace=wrap;html=1;fillColor=#ffe6cc;strokeColor=#d79b00;" vertex="1" parent="1">
          <mxGeometry x="200" y="1000" width="80" height="80" as="geometry" />
        </mxCell>
        <mxCell id="_hwqhM2ODTQjuhR24x__-114" value="" style="rounded=0;whiteSpace=wrap;html=1;fillColor=#ffe6cc;strokeColor=#d79b00;" vertex="1" parent="1">
          <mxGeometry x="280" y="1000" width="80" height="80" as="geometry" />
        </mxCell>
        <mxCell id="_hwqhM2ODTQjuhR24x__-115" value="" style="rounded=0;whiteSpace=wrap;html=1;fillColor=#ffe6cc;strokeColor=#d79b00;" vertex="1" parent="1">
          <mxGeometry x="360" y="760" width="80" height="80" as="geometry" />
        </mxCell>
        <mxCell id="_hwqhM2ODTQjuhR24x__-116" value="" style="rounded=0;whiteSpace=wrap;html=1;fillColor=#ffe6cc;strokeColor=#d79b00;" vertex="1" parent="1">
          <mxGeometry x="440" y="760" width="80" height="80" as="geometry" />
        </mxCell>
        <mxCell id="_hwqhM2ODTQjuhR24x__-117" value="" style="rounded=0;whiteSpace=wrap;html=1;fillColor=#ffe6cc;strokeColor=#d79b00;" vertex="1" parent="1">
          <mxGeometry x="360" y="840" width="80" height="80" as="geometry" />
        </mxCell>
        <mxCell id="_hwqhM2ODTQjuhR24x__-118" value="" style="rounded=0;whiteSpace=wrap;html=1;fillColor=#ffe6cc;strokeColor=#d79b00;" vertex="1" parent="1">
          <mxGeometry x="440" y="840" width="80" height="80" as="geometry" />
        </mxCell>
        <mxCell id="_hwqhM2ODTQjuhR24x__-119" value="" style="rounded=0;whiteSpace=wrap;html=1;fillColor=#ffe6cc;strokeColor=#d79b00;" vertex="1" parent="1">
          <mxGeometry x="520" y="760" width="80" height="80" as="geometry" />
        </mxCell>
        <mxCell id="_hwqhM2ODTQjuhR24x__-120" value="" style="rounded=0;whiteSpace=wrap;html=1;fillColor=#ffe6cc;strokeColor=#d79b00;" vertex="1" parent="1">
          <mxGeometry x="600" y="760" width="80" height="80" as="geometry" />
        </mxCell>
        <mxCell id="_hwqhM2ODTQjuhR24x__-121" value="" style="rounded=0;whiteSpace=wrap;html=1;fillColor=#ffe6cc;strokeColor=#d79b00;" vertex="1" parent="1">
          <mxGeometry x="520" y="840" width="80" height="80" as="geometry" />
        </mxCell>
        <mxCell id="_hwqhM2ODTQjuhR24x__-122" value="" style="rounded=0;whiteSpace=wrap;html=1;fillColor=#ffe6cc;strokeColor=#d79b00;" vertex="1" parent="1">
          <mxGeometry x="600" y="840" width="80" height="80" as="geometry" />
        </mxCell>
        <mxCell id="_hwqhM2ODTQjuhR24x__-123" value="" style="rounded=0;whiteSpace=wrap;html=1;fillColor=#ffe6cc;strokeColor=#d79b00;" vertex="1" parent="1">
          <mxGeometry x="360" y="920" width="80" height="80" as="geometry" />
        </mxCell>
        <mxCell id="_hwqhM2ODTQjuhR24x__-124" value="" style="rounded=0;whiteSpace=wrap;html=1;fillColor=#ffe6cc;strokeColor=#d79b00;" vertex="1" parent="1">
          <mxGeometry x="440" y="920" width="80" height="80" as="geometry" />
        </mxCell>
        <mxCell id="_hwqhM2ODTQjuhR24x__-125" value="" style="rounded=0;whiteSpace=wrap;html=1;fillColor=#ffe6cc;strokeColor=#d79b00;" vertex="1" parent="1">
          <mxGeometry x="360" y="1000" width="80" height="80" as="geometry" />
        </mxCell>
        <mxCell id="_hwqhM2ODTQjuhR24x__-126" value="" style="rounded=0;whiteSpace=wrap;html=1;fillColor=#ffe6cc;strokeColor=#d79b00;" vertex="1" parent="1">
          <mxGeometry x="440" y="1000" width="80" height="80" as="geometry" />
        </mxCell>
        <mxCell id="_hwqhM2ODTQjuhR24x__-127" value="" style="rounded=0;whiteSpace=wrap;html=1;fillColor=#ffe6cc;strokeColor=#d79b00;" vertex="1" parent="1">
          <mxGeometry x="520" y="920" width="80" height="80" as="geometry" />
        </mxCell>
        <mxCell id="_hwqhM2ODTQjuhR24x__-128" value="" style="rounded=0;whiteSpace=wrap;html=1;fillColor=#ffe6cc;strokeColor=#d79b00;" vertex="1" parent="1">
          <mxGeometry x="600" y="920" width="80" height="80" as="geometry" />
        </mxCell>
        <mxCell id="_hwqhM2ODTQjuhR24x__-129" value="" style="rounded=0;whiteSpace=wrap;html=1;fillColor=#ffe6cc;strokeColor=#d79b00;" vertex="1" parent="1">
          <mxGeometry x="520" y="1000" width="80" height="80" as="geometry" />
        </mxCell>
        <mxCell id="_hwqhM2ODTQjuhR24x__-130" value="" style="rounded=0;whiteSpace=wrap;html=1;fillColor=#ffe6cc;strokeColor=#d79b00;" vertex="1" parent="1">
          <mxGeometry x="600" y="1000" width="80" height="80" as="geometry" />
        </mxCell>
        <mxCell id="_hwqhM2ODTQjuhR24x__-131" value="" style="rounded=0;whiteSpace=wrap;html=1;fillColor=#ffe6cc;strokeColor=#d79b00;" vertex="1" parent="1">
          <mxGeometry x="880" y="760" width="80" height="80" as="geometry" />
        </mxCell>
        <mxCell id="_hwqhM2ODTQjuhR24x__-132" value="" style="rounded=0;whiteSpace=wrap;html=1;fillColor=#ffe6cc;strokeColor=#d79b00;" vertex="1" parent="1">
          <mxGeometry x="960" y="760" width="80" height="80" as="geometry" />
        </mxCell>
        <mxCell id="_hwqhM2ODTQjuhR24x__-133" value="" style="rounded=0;whiteSpace=wrap;html=1;fillColor=#ffe6cc;strokeColor=#d79b00;" vertex="1" parent="1">
          <mxGeometry x="880" y="840" width="80" height="80" as="geometry" />
        </mxCell>
        <mxCell id="_hwqhM2ODTQjuhR24x__-134" value="" style="rounded=0;whiteSpace=wrap;html=1;fillColor=#ffe6cc;strokeColor=#d79b00;" vertex="1" parent="1">
          <mxGeometry x="960" y="840" width="80" height="80" as="geometry" />
        </mxCell>
        <mxCell id="_hwqhM2ODTQjuhR24x__-135" value="" style="rounded=0;whiteSpace=wrap;html=1;fillColor=#ffe6cc;strokeColor=#d79b00;" vertex="1" parent="1">
          <mxGeometry x="1040" y="760" width="80" height="80" as="geometry" />
        </mxCell>
        <mxCell id="_hwqhM2ODTQjuhR24x__-136" value="" style="rounded=0;whiteSpace=wrap;html=1;fillColor=#ffe6cc;strokeColor=#d79b00;" vertex="1" parent="1">
          <mxGeometry x="1120" y="760" width="80" height="80" as="geometry" />
        </mxCell>
        <mxCell id="_hwqhM2ODTQjuhR24x__-137" value="" style="rounded=0;whiteSpace=wrap;html=1;fillColor=#ffe6cc;strokeColor=#d79b00;" vertex="1" parent="1">
          <mxGeometry x="1040" y="840" width="80" height="80" as="geometry" />
        </mxCell>
        <mxCell id="_hwqhM2ODTQjuhR24x__-138" value="" style="rounded=0;whiteSpace=wrap;html=1;fillColor=#ffe6cc;strokeColor=#d79b00;" vertex="1" parent="1">
          <mxGeometry x="1120" y="840" width="80" height="80" as="geometry" />
        </mxCell>
        <mxCell id="_hwqhM2ODTQjuhR24x__-139" value="" style="rounded=0;whiteSpace=wrap;html=1;fillColor=#ffe6cc;strokeColor=#d79b00;" vertex="1" parent="1">
          <mxGeometry x="880" y="920" width="80" height="80" as="geometry" />
        </mxCell>
        <mxCell id="_hwqhM2ODTQjuhR24x__-140" value="" style="rounded=0;whiteSpace=wrap;html=1;fillColor=#ffe6cc;strokeColor=#d79b00;" vertex="1" parent="1">
          <mxGeometry x="960" y="920" width="80" height="80" as="geometry" />
        </mxCell>
        <mxCell id="_hwqhM2ODTQjuhR24x__-141" value="" style="rounded=0;whiteSpace=wrap;html=1;fillColor=#ffe6cc;strokeColor=#d79b00;" vertex="1" parent="1">
          <mxGeometry x="880" y="1000" width="80" height="80" as="geometry" />
        </mxCell>
        <mxCell id="_hwqhM2ODTQjuhR24x__-142" value="" style="rounded=0;whiteSpace=wrap;html=1;fillColor=#ffe6cc;strokeColor=#d79b00;" vertex="1" parent="1">
          <mxGeometry x="960" y="1000" width="80" height="80" as="geometry" />
        </mxCell>
        <mxCell id="_hwqhM2ODTQjuhR24x__-143" value="" style="rounded=0;whiteSpace=wrap;html=1;fillColor=#ffe6cc;strokeColor=#d79b00;" vertex="1" parent="1">
          <mxGeometry x="1040" y="920" width="80" height="80" as="geometry" />
        </mxCell>
        <mxCell id="_hwqhM2ODTQjuhR24x__-144" value="" style="rounded=0;whiteSpace=wrap;html=1;fillColor=#ffe6cc;strokeColor=#d79b00;" vertex="1" parent="1">
          <mxGeometry x="1120" y="920" width="80" height="80" as="geometry" />
        </mxCell>
        <mxCell id="_hwqhM2ODTQjuhR24x__-145" value="" style="rounded=0;whiteSpace=wrap;html=1;fillColor=#ffe6cc;strokeColor=#d79b00;" vertex="1" parent="1">
          <mxGeometry x="1040" y="1000" width="80" height="80" as="geometry" />
        </mxCell>
        <mxCell id="_hwqhM2ODTQjuhR24x__-146" value="" style="rounded=0;whiteSpace=wrap;html=1;fillColor=#ffe6cc;strokeColor=#d79b00;" vertex="1" parent="1">
          <mxGeometry x="1120" y="1000" width="80" height="80" as="geometry" />
        </mxCell>
        <mxCell id="_hwqhM2ODTQjuhR24x__-147" value="" style="rounded=0;whiteSpace=wrap;html=1;fillColor=#ffe6cc;strokeColor=#d79b00;" vertex="1" parent="1">
          <mxGeometry x="1200" y="760" width="80" height="80" as="geometry" />
        </mxCell>
        <mxCell id="_hwqhM2ODTQjuhR24x__-148" value="" style="rounded=0;whiteSpace=wrap;html=1;fillColor=#ffe6cc;strokeColor=#d79b00;" vertex="1" parent="1">
          <mxGeometry x="1280" y="760" width="80" height="80" as="geometry" />
        </mxCell>
        <mxCell id="_hwqhM2ODTQjuhR24x__-149" value="" style="rounded=0;whiteSpace=wrap;html=1;fillColor=#ffe6cc;strokeColor=#d79b00;" vertex="1" parent="1">
          <mxGeometry x="1200" y="840" width="80" height="80" as="geometry" />
        </mxCell>
        <mxCell id="_hwqhM2ODTQjuhR24x__-150" value="" style="rounded=0;whiteSpace=wrap;html=1;fillColor=#ffe6cc;strokeColor=#d79b00;" vertex="1" parent="1">
          <mxGeometry x="1280" y="840" width="80" height="80" as="geometry" />
        </mxCell>
        <mxCell id="_hwqhM2ODTQjuhR24x__-151" value="" style="rounded=0;whiteSpace=wrap;html=1;fillColor=#ffe6cc;strokeColor=#d79b00;" vertex="1" parent="1">
          <mxGeometry x="1360" y="760" width="80" height="80" as="geometry" />
        </mxCell>
        <mxCell id="_hwqhM2ODTQjuhR24x__-152" value="" style="rounded=0;whiteSpace=wrap;html=1;fillColor=#ffe6cc;strokeColor=#d79b00;" vertex="1" parent="1">
          <mxGeometry x="1440" y="760" width="80" height="80" as="geometry" />
        </mxCell>
        <mxCell id="_hwqhM2ODTQjuhR24x__-153" value="" style="rounded=0;whiteSpace=wrap;html=1;fillColor=#ffe6cc;strokeColor=#d79b00;" vertex="1" parent="1">
          <mxGeometry x="1360" y="840" width="80" height="80" as="geometry" />
        </mxCell>
        <mxCell id="_hwqhM2ODTQjuhR24x__-154" value="" style="rounded=0;whiteSpace=wrap;html=1;fillColor=#ffe6cc;strokeColor=#d79b00;" vertex="1" parent="1">
          <mxGeometry x="1440" y="840" width="80" height="80" as="geometry" />
        </mxCell>
        <mxCell id="_hwqhM2ODTQjuhR24x__-155" value="" style="rounded=0;whiteSpace=wrap;html=1;fillColor=#ffe6cc;strokeColor=#d79b00;" vertex="1" parent="1">
          <mxGeometry x="1200" y="920" width="80" height="80" as="geometry" />
        </mxCell>
        <mxCell id="_hwqhM2ODTQjuhR24x__-156" value="" style="rounded=0;whiteSpace=wrap;html=1;fillColor=#ffe6cc;strokeColor=#d79b00;" vertex="1" parent="1">
          <mxGeometry x="1280" y="920" width="80" height="80" as="geometry" />
        </mxCell>
        <mxCell id="_hwqhM2ODTQjuhR24x__-157" value="" style="rounded=0;whiteSpace=wrap;html=1;fillColor=#ffe6cc;strokeColor=#d79b00;" vertex="1" parent="1">
          <mxGeometry x="1200" y="1000" width="80" height="80" as="geometry" />
        </mxCell>
        <mxCell id="_hwqhM2ODTQjuhR24x__-158" value="" style="rounded=0;whiteSpace=wrap;html=1;fillColor=#ffe6cc;strokeColor=#d79b00;" vertex="1" parent="1">
          <mxGeometry x="1280" y="1000" width="80" height="80" as="geometry" />
        </mxCell>
        <mxCell id="_hwqhM2ODTQjuhR24x__-159" value="" style="rounded=0;whiteSpace=wrap;html=1;fillColor=#ffe6cc;strokeColor=#d79b00;" vertex="1" parent="1">
          <mxGeometry x="1360" y="920" width="80" height="80" as="geometry" />
        </mxCell>
        <mxCell id="_hwqhM2ODTQjuhR24x__-160" value="" style="rounded=0;whiteSpace=wrap;html=1;fillColor=#ffe6cc;strokeColor=#d79b00;" vertex="1" parent="1">
          <mxGeometry x="1440" y="920" width="80" height="80" as="geometry" />
        </mxCell>
        <mxCell id="_hwqhM2ODTQjuhR24x__-161" value="" style="rounded=0;whiteSpace=wrap;html=1;fillColor=#ffe6cc;strokeColor=#d79b00;" vertex="1" parent="1">
          <mxGeometry x="1360" y="1000" width="80" height="80" as="geometry" />
        </mxCell>
        <mxCell id="_hwqhM2ODTQjuhR24x__-162" value="" style="rounded=0;whiteSpace=wrap;html=1;fillColor=#ffe6cc;strokeColor=#d79b00;" vertex="1" parent="1">
          <mxGeometry x="1440" y="1000" width="80" height="80" as="geometry" />
        </mxCell>
        <mxCell id="_hwqhM2ODTQjuhR24x__-163" value="" style="endArrow=none;dashed=1;html=1;rounded=0;strokeWidth=6;dashPattern=1 4;fillColor=#ffe6cc;strokeColor=#d79b00;" edge="1" parent="1">
          <mxGeometry width="50" height="50" relative="1" as="geometry">
            <mxPoint x="720" y="920" as="sourcePoint" />
            <mxPoint x="840" y="920" as="targetPoint" />
          </mxGeometry>
        </mxCell>
        <mxCell id="_hwqhM2ODTQjuhR24x__-164" value="" style="endArrow=none;dashed=1;html=1;rounded=0;strokeWidth=6;dashPattern=1 4;fillColor=#ffe6cc;strokeColor=#d79b00;" edge="1" parent="1">
          <mxGeometry width="50" height="50" relative="1" as="geometry">
            <mxPoint x="360" y="660" as="sourcePoint" />
            <mxPoint x="360" y="740" as="targetPoint" />
          </mxGeometry>
        </mxCell>
        <mxCell id="_hwqhM2ODTQjuhR24x__-165" value="" style="endArrow=none;dashed=1;html=1;rounded=0;strokeWidth=6;dashPattern=1 4;fillColor=#ffe6cc;strokeColor=#d79b00;" edge="1" parent="1">
          <mxGeometry width="50" height="50" relative="1" as="geometry">
            <mxPoint x="1200" y="660" as="sourcePoint" />
            <mxPoint x="1200" y="740" as="targetPoint" />
          </mxGeometry>
        </mxCell>
        <mxCell id="_hwqhM2ODTQjuhR24x__-166" value="" style="rounded=0;whiteSpace=wrap;html=1;fillColor=#dae8fc;strokeColor=#6c8ebf;" vertex="1" parent="1">
          <mxGeometry x="1720" y="-800" width="80" height="80" as="geometry" />
        </mxCell>
        <mxCell id="_hwqhM2ODTQjuhR24x__-167" value="" style="rounded=0;whiteSpace=wrap;html=1;fillColor=#B5739D;strokeColor=#6c8ebf;gradientColor=none;" vertex="1" parent="1">
          <mxGeometry x="1800" y="-800" width="80" height="80" as="geometry" />
        </mxCell>
        <mxCell id="_hwqhM2ODTQjuhR24x__-168" value="" style="rounded=0;whiteSpace=wrap;html=1;fillColor=#dae8fc;strokeColor=#6c8ebf;" vertex="1" parent="1">
          <mxGeometry x="1720" y="-720" width="80" height="80" as="geometry" />
        </mxCell>
        <mxCell id="_hwqhM2ODTQjuhR24x__-169" value="" style="rounded=0;whiteSpace=wrap;html=1;fillColor=#B5739D;strokeColor=#6c8ebf;gradientColor=none;" vertex="1" parent="1">
          <mxGeometry x="1800" y="-720" width="80" height="80" as="geometry" />
        </mxCell>
        <mxCell id="_hwqhM2ODTQjuhR24x__-170" value="" style="rounded=0;whiteSpace=wrap;html=1;fillColor=#dae8fc;strokeColor=#6c8ebf;" vertex="1" parent="1">
          <mxGeometry x="1880" y="-800" width="80" height="80" as="geometry" />
        </mxCell>
        <mxCell id="_hwqhM2ODTQjuhR24x__-171" value="" style="rounded=0;whiteSpace=wrap;html=1;fillColor=#dae8fc;strokeColor=#6c8ebf;" vertex="1" parent="1">
          <mxGeometry x="1960" y="-800" width="80" height="80" as="geometry" />
        </mxCell>
        <mxCell id="_hwqhM2ODTQjuhR24x__-172" value="" style="rounded=0;whiteSpace=wrap;html=1;fillColor=#dae8fc;strokeColor=#6c8ebf;" vertex="1" parent="1">
          <mxGeometry x="1880" y="-720" width="80" height="80" as="geometry" />
        </mxCell>
        <mxCell id="_hwqhM2ODTQjuhR24x__-173" value="" style="rounded=0;whiteSpace=wrap;html=1;fillColor=#dae8fc;strokeColor=#6c8ebf;" vertex="1" parent="1">
          <mxGeometry x="1960" y="-720" width="80" height="80" as="geometry" />
        </mxCell>
        <mxCell id="_hwqhM2ODTQjuhR24x__-174" value="" style="rounded=0;whiteSpace=wrap;html=1;fillColor=#dae8fc;strokeColor=#6c8ebf;" vertex="1" parent="1">
          <mxGeometry x="1720" y="-640" width="80" height="80" as="geometry" />
        </mxCell>
        <mxCell id="_hwqhM2ODTQjuhR24x__-175" value="" style="rounded=0;whiteSpace=wrap;html=1;fillColor=#B5739D;strokeColor=#6c8ebf;gradientColor=none;" vertex="1" parent="1">
          <mxGeometry x="1800" y="-640" width="80" height="80" as="geometry" />
        </mxCell>
        <mxCell id="_hwqhM2ODTQjuhR24x__-176" value="" style="rounded=0;whiteSpace=wrap;html=1;fillColor=#dae8fc;strokeColor=#6c8ebf;" vertex="1" parent="1">
          <mxGeometry x="1720" y="-560" width="80" height="80" as="geometry" />
        </mxCell>
        <mxCell id="_hwqhM2ODTQjuhR24x__-177" value="" style="rounded=0;whiteSpace=wrap;html=1;fillColor=#B5739D;strokeColor=#6c8ebf;gradientColor=none;" vertex="1" parent="1">
          <mxGeometry x="1800" y="-560" width="80" height="80" as="geometry" />
        </mxCell>
        <mxCell id="_hwqhM2ODTQjuhR24x__-178" value="" style="rounded=0;whiteSpace=wrap;html=1;fillColor=#dae8fc;strokeColor=#6c8ebf;" vertex="1" parent="1">
          <mxGeometry x="1880" y="-640" width="80" height="80" as="geometry" />
        </mxCell>
        <mxCell id="_hwqhM2ODTQjuhR24x__-179" value="" style="rounded=0;whiteSpace=wrap;html=1;fillColor=#dae8fc;strokeColor=#6c8ebf;" vertex="1" parent="1">
          <mxGeometry x="1960" y="-640" width="80" height="80" as="geometry" />
        </mxCell>
        <mxCell id="_hwqhM2ODTQjuhR24x__-180" value="" style="rounded=0;whiteSpace=wrap;html=1;fillColor=#dae8fc;strokeColor=#6c8ebf;" vertex="1" parent="1">
          <mxGeometry x="1880" y="-560" width="80" height="80" as="geometry" />
        </mxCell>
        <mxCell id="_hwqhM2ODTQjuhR24x__-181" value="" style="rounded=0;whiteSpace=wrap;html=1;fillColor=#dae8fc;strokeColor=#6c8ebf;" vertex="1" parent="1">
          <mxGeometry x="1960" y="-560" width="80" height="80" as="geometry" />
        </mxCell>
        <mxCell id="_hwqhM2ODTQjuhR24x__-182" value="" style="rounded=0;whiteSpace=wrap;html=1;fillColor=#dae8fc;strokeColor=#6c8ebf;" vertex="1" parent="1">
          <mxGeometry x="2200" y="-800" width="80" height="80" as="geometry" />
        </mxCell>
        <mxCell id="_hwqhM2ODTQjuhR24x__-183" value="" style="rounded=0;whiteSpace=wrap;html=1;fillColor=#dae8fc;strokeColor=#6c8ebf;" vertex="1" parent="1">
          <mxGeometry x="2280" y="-800" width="80" height="80" as="geometry" />
        </mxCell>
        <mxCell id="_hwqhM2ODTQjuhR24x__-184" value="" style="rounded=0;whiteSpace=wrap;html=1;fillColor=#dae8fc;strokeColor=#6c8ebf;" vertex="1" parent="1">
          <mxGeometry x="2200" y="-720" width="80" height="80" as="geometry" />
        </mxCell>
        <mxCell id="_hwqhM2ODTQjuhR24x__-185" value="" style="rounded=0;whiteSpace=wrap;html=1;fillColor=#dae8fc;strokeColor=#6c8ebf;" vertex="1" parent="1">
          <mxGeometry x="2280" y="-720" width="80" height="80" as="geometry" />
        </mxCell>
        <mxCell id="_hwqhM2ODTQjuhR24x__-186" value="" style="rounded=0;whiteSpace=wrap;html=1;fillColor=#dae8fc;strokeColor=#6c8ebf;" vertex="1" parent="1">
          <mxGeometry x="2360" y="-800" width="80" height="80" as="geometry" />
        </mxCell>
        <mxCell id="_hwqhM2ODTQjuhR24x__-187" value="" style="rounded=0;whiteSpace=wrap;html=1;fillColor=#dae8fc;strokeColor=#6c8ebf;" vertex="1" parent="1">
          <mxGeometry x="2440" y="-800" width="80" height="80" as="geometry" />
        </mxCell>
        <mxCell id="_hwqhM2ODTQjuhR24x__-188" value="" style="rounded=0;whiteSpace=wrap;html=1;fillColor=#dae8fc;strokeColor=#6c8ebf;" vertex="1" parent="1">
          <mxGeometry x="2360" y="-720" width="80" height="80" as="geometry" />
        </mxCell>
        <mxCell id="_hwqhM2ODTQjuhR24x__-189" value="" style="rounded=0;whiteSpace=wrap;html=1;fillColor=#dae8fc;strokeColor=#6c8ebf;" vertex="1" parent="1">
          <mxGeometry x="2440" y="-720" width="80" height="80" as="geometry" />
        </mxCell>
        <mxCell id="_hwqhM2ODTQjuhR24x__-190" value="" style="rounded=0;whiteSpace=wrap;html=1;fillColor=#dae8fc;strokeColor=#6c8ebf;" vertex="1" parent="1">
          <mxGeometry x="2200" y="-640" width="80" height="80" as="geometry" />
        </mxCell>
        <mxCell id="_hwqhM2ODTQjuhR24x__-191" value="" style="rounded=0;whiteSpace=wrap;html=1;fillColor=#dae8fc;strokeColor=#6c8ebf;" vertex="1" parent="1">
          <mxGeometry x="2280" y="-640" width="80" height="80" as="geometry" />
        </mxCell>
        <mxCell id="_hwqhM2ODTQjuhR24x__-192" value="" style="rounded=0;whiteSpace=wrap;html=1;fillColor=#dae8fc;strokeColor=#6c8ebf;" vertex="1" parent="1">
          <mxGeometry x="2200" y="-560" width="80" height="80" as="geometry" />
        </mxCell>
        <mxCell id="_hwqhM2ODTQjuhR24x__-193" value="" style="rounded=0;whiteSpace=wrap;html=1;fillColor=#dae8fc;strokeColor=#6c8ebf;" vertex="1" parent="1">
          <mxGeometry x="2280" y="-560" width="80" height="80" as="geometry" />
        </mxCell>
        <mxCell id="_hwqhM2ODTQjuhR24x__-194" value="" style="rounded=0;whiteSpace=wrap;html=1;fillColor=#dae8fc;strokeColor=#6c8ebf;" vertex="1" parent="1">
          <mxGeometry x="2360" y="-640" width="80" height="80" as="geometry" />
        </mxCell>
        <mxCell id="_hwqhM2ODTQjuhR24x__-195" value="" style="rounded=0;whiteSpace=wrap;html=1;fillColor=#dae8fc;strokeColor=#6c8ebf;" vertex="1" parent="1">
          <mxGeometry x="2440" y="-640" width="80" height="80" as="geometry" />
        </mxCell>
        <mxCell id="_hwqhM2ODTQjuhR24x__-196" value="" style="rounded=0;whiteSpace=wrap;html=1;fillColor=#dae8fc;strokeColor=#6c8ebf;" vertex="1" parent="1">
          <mxGeometry x="2360" y="-560" width="80" height="80" as="geometry" />
        </mxCell>
        <mxCell id="_hwqhM2ODTQjuhR24x__-197" value="" style="rounded=0;whiteSpace=wrap;html=1;fillColor=#dae8fc;strokeColor=#6c8ebf;" vertex="1" parent="1">
          <mxGeometry x="2440" y="-560" width="80" height="80" as="geometry" />
        </mxCell>
        <mxCell id="_hwqhM2ODTQjuhR24x__-198" value="" style="endArrow=none;dashed=1;html=1;rounded=0;strokeWidth=6;dashPattern=1 4;fillColor=#dae8fc;strokeColor=#6c8ebf;" edge="1" parent="1">
          <mxGeometry width="50" height="50" relative="1" as="geometry">
            <mxPoint x="2065" y="-641.05" as="sourcePoint" />
            <mxPoint x="2185" y="-641.05" as="targetPoint" />
          </mxGeometry>
        </mxCell>
        <mxCell id="_hwqhM2ODTQjuhR24x__-199" value="" style="endArrow=none;dashed=1;html=1;rounded=0;strokeWidth=6;dashPattern=1 4;fillColor=#dae8fc;strokeColor=#6c8ebf;" edge="1" parent="1">
          <mxGeometry width="50" height="50" relative="1" as="geometry">
            <mxPoint x="1880" y="-400" as="sourcePoint" />
            <mxPoint x="1880" y="-320" as="targetPoint" />
          </mxGeometry>
        </mxCell>
        <mxCell id="_hwqhM2ODTQjuhR24x__-200" value="" style="endArrow=none;dashed=1;html=1;rounded=0;strokeWidth=6;dashPattern=1 4;fillColor=#dae8fc;strokeColor=#6c8ebf;" edge="1" parent="1">
          <mxGeometry width="50" height="50" relative="1" as="geometry">
            <mxPoint x="2360" y="-400" as="sourcePoint" />
            <mxPoint x="2360" y="-320" as="targetPoint" />
          </mxGeometry>
        </mxCell>
        <mxCell id="_hwqhM2ODTQjuhR24x__-201" value="" style="rounded=0;whiteSpace=wrap;html=1;fillColor=#f8cecc;strokeColor=#b85450;" vertex="1" parent="1">
          <mxGeometry x="1720" y="760" width="80" height="80" as="geometry" />
        </mxCell>
        <mxCell id="_hwqhM2ODTQjuhR24x__-202" value="" style="rounded=0;whiteSpace=wrap;html=1;fillColor=#e1d5e7;strokeColor=#9673a6;" vertex="1" parent="1">
          <mxGeometry x="1800" y="760" width="80" height="80" as="geometry" />
        </mxCell>
        <mxCell id="_hwqhM2ODTQjuhR24x__-203" value="" style="rounded=0;whiteSpace=wrap;html=1;fillColor=#f8cecc;strokeColor=#b85450;" vertex="1" parent="1">
          <mxGeometry x="1720" y="840" width="80" height="80" as="geometry" />
        </mxCell>
        <mxCell id="_hwqhM2ODTQjuhR24x__-204" value="" style="rounded=0;whiteSpace=wrap;html=1;fillColor=#e1d5e7;strokeColor=#9673a6;" vertex="1" parent="1">
          <mxGeometry x="1800" y="840" width="80" height="80" as="geometry" />
        </mxCell>
        <mxCell id="_hwqhM2ODTQjuhR24x__-205" value="" style="rounded=0;whiteSpace=wrap;html=1;fillColor=#f8cecc;strokeColor=#b85450;" vertex="1" parent="1">
          <mxGeometry x="1880" y="760" width="80" height="80" as="geometry" />
        </mxCell>
        <mxCell id="_hwqhM2ODTQjuhR24x__-206" value="" style="rounded=0;whiteSpace=wrap;html=1;fillColor=#f8cecc;strokeColor=#b85450;" vertex="1" parent="1">
          <mxGeometry x="1960" y="760" width="80" height="80" as="geometry" />
        </mxCell>
        <mxCell id="_hwqhM2ODTQjuhR24x__-207" value="" style="rounded=0;whiteSpace=wrap;html=1;fillColor=#f8cecc;strokeColor=#b85450;" vertex="1" parent="1">
          <mxGeometry x="1880" y="840" width="80" height="80" as="geometry" />
        </mxCell>
        <mxCell id="_hwqhM2ODTQjuhR24x__-208" value="" style="rounded=0;whiteSpace=wrap;html=1;fillColor=#f8cecc;strokeColor=#b85450;" vertex="1" parent="1">
          <mxGeometry x="1960" y="840" width="80" height="80" as="geometry" />
        </mxCell>
        <mxCell id="_hwqhM2ODTQjuhR24x__-209" value="" style="rounded=0;whiteSpace=wrap;html=1;fillColor=#f8cecc;strokeColor=#b85450;" vertex="1" parent="1">
          <mxGeometry x="1720" y="920" width="80" height="80" as="geometry" />
        </mxCell>
        <mxCell id="_hwqhM2ODTQjuhR24x__-210" value="" style="rounded=0;whiteSpace=wrap;html=1;fillColor=#e1d5e7;strokeColor=#9673a6;" vertex="1" parent="1">
          <mxGeometry x="1800" y="920" width="80" height="80" as="geometry" />
        </mxCell>
        <mxCell id="_hwqhM2ODTQjuhR24x__-211" value="" style="rounded=0;whiteSpace=wrap;html=1;fillColor=#f8cecc;strokeColor=#b85450;" vertex="1" parent="1">
          <mxGeometry x="1720" y="1000" width="80" height="80" as="geometry" />
        </mxCell>
        <mxCell id="_hwqhM2ODTQjuhR24x__-212" value="" style="rounded=0;whiteSpace=wrap;html=1;fillColor=#e1d5e7;strokeColor=#9673a6;" vertex="1" parent="1">
          <mxGeometry x="1800" y="1000" width="80" height="80" as="geometry" />
        </mxCell>
        <mxCell id="_hwqhM2ODTQjuhR24x__-213" value="" style="rounded=0;whiteSpace=wrap;html=1;fillColor=#f8cecc;strokeColor=#b85450;" vertex="1" parent="1">
          <mxGeometry x="1880" y="920" width="80" height="80" as="geometry" />
        </mxCell>
        <mxCell id="_hwqhM2ODTQjuhR24x__-214" value="" style="rounded=0;whiteSpace=wrap;html=1;fillColor=#f8cecc;strokeColor=#b85450;" vertex="1" parent="1">
          <mxGeometry x="1960" y="920" width="80" height="80" as="geometry" />
        </mxCell>
        <mxCell id="_hwqhM2ODTQjuhR24x__-215" value="" style="rounded=0;whiteSpace=wrap;html=1;fillColor=#f8cecc;strokeColor=#b85450;" vertex="1" parent="1">
          <mxGeometry x="1880" y="1000" width="80" height="80" as="geometry" />
        </mxCell>
        <mxCell id="_hwqhM2ODTQjuhR24x__-216" value="" style="rounded=0;whiteSpace=wrap;html=1;fillColor=#f8cecc;strokeColor=#b85450;" vertex="1" parent="1">
          <mxGeometry x="1960" y="1000" width="80" height="80" as="geometry" />
        </mxCell>
        <mxCell id="_hwqhM2ODTQjuhR24x__-217" value="" style="rounded=0;whiteSpace=wrap;html=1;fillColor=#f8cecc;strokeColor=#b85450;" vertex="1" parent="1">
          <mxGeometry x="2200" y="760" width="80" height="80" as="geometry" />
        </mxCell>
        <mxCell id="_hwqhM2ODTQjuhR24x__-218" value="" style="rounded=0;whiteSpace=wrap;html=1;fillColor=#f8cecc;strokeColor=#b85450;" vertex="1" parent="1">
          <mxGeometry x="2280" y="760" width="80" height="80" as="geometry" />
        </mxCell>
        <mxCell id="_hwqhM2ODTQjuhR24x__-219" value="" style="rounded=0;whiteSpace=wrap;html=1;fillColor=#f8cecc;strokeColor=#b85450;" vertex="1" parent="1">
          <mxGeometry x="2200" y="840" width="80" height="80" as="geometry" />
        </mxCell>
        <mxCell id="_hwqhM2ODTQjuhR24x__-220" value="" style="rounded=0;whiteSpace=wrap;html=1;fillColor=#f8cecc;strokeColor=#b85450;" vertex="1" parent="1">
          <mxGeometry x="2280" y="840" width="80" height="80" as="geometry" />
        </mxCell>
        <mxCell id="_hwqhM2ODTQjuhR24x__-221" value="" style="rounded=0;whiteSpace=wrap;html=1;fillColor=#f8cecc;strokeColor=#b85450;" vertex="1" parent="1">
          <mxGeometry x="2360" y="760" width="80" height="80" as="geometry" />
        </mxCell>
        <mxCell id="_hwqhM2ODTQjuhR24x__-222" value="" style="rounded=0;whiteSpace=wrap;html=1;fillColor=#f8cecc;strokeColor=#b85450;" vertex="1" parent="1">
          <mxGeometry x="2440" y="760" width="80" height="80" as="geometry" />
        </mxCell>
        <mxCell id="_hwqhM2ODTQjuhR24x__-223" value="" style="rounded=0;whiteSpace=wrap;html=1;fillColor=#f8cecc;strokeColor=#b85450;" vertex="1" parent="1">
          <mxGeometry x="2360" y="840" width="80" height="80" as="geometry" />
        </mxCell>
        <mxCell id="_hwqhM2ODTQjuhR24x__-224" value="" style="rounded=0;whiteSpace=wrap;html=1;fillColor=#f8cecc;strokeColor=#b85450;" vertex="1" parent="1">
          <mxGeometry x="2440" y="840" width="80" height="80" as="geometry" />
        </mxCell>
        <mxCell id="_hwqhM2ODTQjuhR24x__-225" value="" style="rounded=0;whiteSpace=wrap;html=1;fillColor=#f8cecc;strokeColor=#b85450;" vertex="1" parent="1">
          <mxGeometry x="2200" y="920" width="80" height="80" as="geometry" />
        </mxCell>
        <mxCell id="_hwqhM2ODTQjuhR24x__-226" value="" style="rounded=0;whiteSpace=wrap;html=1;fillColor=#f8cecc;strokeColor=#b85450;" vertex="1" parent="1">
          <mxGeometry x="2280" y="920" width="80" height="80" as="geometry" />
        </mxCell>
        <mxCell id="_hwqhM2ODTQjuhR24x__-227" value="" style="rounded=0;whiteSpace=wrap;html=1;fillColor=#f8cecc;strokeColor=#b85450;" vertex="1" parent="1">
          <mxGeometry x="2200" y="1000" width="80" height="80" as="geometry" />
        </mxCell>
        <mxCell id="_hwqhM2ODTQjuhR24x__-228" value="" style="rounded=0;whiteSpace=wrap;html=1;fillColor=#f8cecc;strokeColor=#b85450;" vertex="1" parent="1">
          <mxGeometry x="2280" y="1000" width="80" height="80" as="geometry" />
        </mxCell>
        <mxCell id="_hwqhM2ODTQjuhR24x__-229" value="" style="rounded=0;whiteSpace=wrap;html=1;fillColor=#f8cecc;strokeColor=#b85450;" vertex="1" parent="1">
          <mxGeometry x="2360" y="920" width="80" height="80" as="geometry" />
        </mxCell>
        <mxCell id="_hwqhM2ODTQjuhR24x__-230" value="" style="rounded=0;whiteSpace=wrap;html=1;fillColor=#f8cecc;strokeColor=#b85450;" vertex="1" parent="1">
          <mxGeometry x="2440" y="920" width="80" height="80" as="geometry" />
        </mxCell>
        <mxCell id="_hwqhM2ODTQjuhR24x__-231" value="" style="rounded=0;whiteSpace=wrap;html=1;fillColor=#f8cecc;strokeColor=#b85450;" vertex="1" parent="1">
          <mxGeometry x="2360" y="1000" width="80" height="80" as="geometry" />
        </mxCell>
        <mxCell id="_hwqhM2ODTQjuhR24x__-232" value="" style="rounded=0;whiteSpace=wrap;html=1;fillColor=#f8cecc;strokeColor=#b85450;" vertex="1" parent="1">
          <mxGeometry x="2440" y="1000" width="80" height="80" as="geometry" />
        </mxCell>
        <mxCell id="_hwqhM2ODTQjuhR24x__-233" value="" style="endArrow=none;dashed=1;html=1;rounded=0;strokeWidth=6;dashPattern=1 4;fillColor=#f8cecc;strokeColor=#b85450;" edge="1" parent="1">
          <mxGeometry width="50" height="50" relative="1" as="geometry">
            <mxPoint x="2065" y="918.95" as="sourcePoint" />
            <mxPoint x="2185" y="918.95" as="targetPoint" />
          </mxGeometry>
        </mxCell>
        <mxCell id="_hwqhM2ODTQjuhR24x__-234" value="" style="rounded=0;whiteSpace=wrap;html=1;fillColor=#f8cecc;strokeColor=#b85450;" vertex="1" parent="1">
          <mxGeometry x="1720" y="320" width="80" height="80" as="geometry" />
        </mxCell>
        <mxCell id="_hwqhM2ODTQjuhR24x__-235" value="" style="rounded=0;whiteSpace=wrap;html=1;fillColor=#e1d5e7;strokeColor=#9673a6;" vertex="1" parent="1">
          <mxGeometry x="1800" y="320" width="80" height="80" as="geometry" />
        </mxCell>
        <mxCell id="_hwqhM2ODTQjuhR24x__-236" value="" style="rounded=0;whiteSpace=wrap;html=1;fillColor=#e1d5e7;strokeColor=#9673a6;" vertex="1" parent="1">
          <mxGeometry x="1720" y="400" width="80" height="80" as="geometry" />
        </mxCell>
        <mxCell id="_hwqhM2ODTQjuhR24x__-237" value="" style="rounded=0;whiteSpace=wrap;html=1;fillColor=#B5739D;strokeColor=#9673a6;" vertex="1" parent="1">
          <mxGeometry x="1800" y="400" width="80" height="80" as="geometry" />
        </mxCell>
        <mxCell id="_hwqhM2ODTQjuhR24x__-238" value="" style="rounded=0;whiteSpace=wrap;html=1;fillColor=#f8cecc;strokeColor=#b85450;" vertex="1" parent="1">
          <mxGeometry x="1880" y="320" width="80" height="80" as="geometry" />
        </mxCell>
        <mxCell id="_hwqhM2ODTQjuhR24x__-239" value="" style="rounded=0;whiteSpace=wrap;html=1;fillColor=#f8cecc;strokeColor=#b85450;" vertex="1" parent="1">
          <mxGeometry x="1960" y="320" width="80" height="80" as="geometry" />
        </mxCell>
        <mxCell id="_hwqhM2ODTQjuhR24x__-240" value="" style="rounded=0;whiteSpace=wrap;html=1;fillColor=#e1d5e7;strokeColor=#9673a6;" vertex="1" parent="1">
          <mxGeometry x="1880" y="400" width="80" height="80" as="geometry" />
        </mxCell>
        <mxCell id="_hwqhM2ODTQjuhR24x__-241" value="" style="rounded=0;whiteSpace=wrap;html=1;fillColor=#e1d5e7;strokeColor=#9673a6;" vertex="1" parent="1">
          <mxGeometry x="1960" y="400" width="80" height="80" as="geometry" />
        </mxCell>
        <mxCell id="_hwqhM2ODTQjuhR24x__-242" value="" style="rounded=0;whiteSpace=wrap;html=1;fillColor=#f8cecc;strokeColor=#b85450;" vertex="1" parent="1">
          <mxGeometry x="1720" y="480" width="80" height="80" as="geometry" />
        </mxCell>
        <mxCell id="_hwqhM2ODTQjuhR24x__-243" value="" style="rounded=0;whiteSpace=wrap;html=1;fillColor=#e1d5e7;strokeColor=#9673a6;" vertex="1" parent="1">
          <mxGeometry x="1800" y="480" width="80" height="80" as="geometry" />
        </mxCell>
        <mxCell id="_hwqhM2ODTQjuhR24x__-244" value="" style="rounded=0;whiteSpace=wrap;html=1;fillColor=#f8cecc;strokeColor=#b85450;" vertex="1" parent="1">
          <mxGeometry x="1720" y="560" width="80" height="80" as="geometry" />
        </mxCell>
        <mxCell id="_hwqhM2ODTQjuhR24x__-245" value="" style="rounded=0;whiteSpace=wrap;html=1;fillColor=#e1d5e7;strokeColor=#9673a6;" vertex="1" parent="1">
          <mxGeometry x="1800" y="560" width="80" height="80" as="geometry" />
        </mxCell>
        <mxCell id="_hwqhM2ODTQjuhR24x__-246" value="" style="rounded=0;whiteSpace=wrap;html=1;fillColor=#f8cecc;strokeColor=#b85450;" vertex="1" parent="1">
          <mxGeometry x="1880" y="480" width="80" height="80" as="geometry" />
        </mxCell>
        <mxCell id="_hwqhM2ODTQjuhR24x__-247" value="" style="rounded=0;whiteSpace=wrap;html=1;fillColor=#f8cecc;strokeColor=#b85450;" vertex="1" parent="1">
          <mxGeometry x="1960" y="480" width="80" height="80" as="geometry" />
        </mxCell>
        <mxCell id="_hwqhM2ODTQjuhR24x__-248" value="" style="rounded=0;whiteSpace=wrap;html=1;fillColor=#f8cecc;strokeColor=#b85450;" vertex="1" parent="1">
          <mxGeometry x="1880" y="560" width="80" height="80" as="geometry" />
        </mxCell>
        <mxCell id="_hwqhM2ODTQjuhR24x__-249" value="" style="rounded=0;whiteSpace=wrap;html=1;fillColor=#f8cecc;strokeColor=#b85450;" vertex="1" parent="1">
          <mxGeometry x="1960" y="560" width="80" height="80" as="geometry" />
        </mxCell>
        <mxCell id="_hwqhM2ODTQjuhR24x__-250" value="" style="rounded=0;whiteSpace=wrap;html=1;fillColor=#f8cecc;strokeColor=#b85450;" vertex="1" parent="1">
          <mxGeometry x="2200" y="320" width="80" height="80" as="geometry" />
        </mxCell>
        <mxCell id="_hwqhM2ODTQjuhR24x__-251" value="" style="rounded=0;whiteSpace=wrap;html=1;fillColor=#f8cecc;strokeColor=#b85450;" vertex="1" parent="1">
          <mxGeometry x="2280" y="320" width="80" height="80" as="geometry" />
        </mxCell>
        <mxCell id="_hwqhM2ODTQjuhR24x__-252" value="" style="rounded=0;whiteSpace=wrap;html=1;fillColor=#e1d5e7;strokeColor=#9673a6;" vertex="1" parent="1">
          <mxGeometry x="2200" y="400" width="80" height="80" as="geometry" />
        </mxCell>
        <mxCell id="_hwqhM2ODTQjuhR24x__-253" value="" style="rounded=0;whiteSpace=wrap;html=1;fillColor=#e1d5e7;strokeColor=#9673a6;" vertex="1" parent="1">
          <mxGeometry x="2280" y="400" width="80" height="80" as="geometry" />
        </mxCell>
        <mxCell id="_hwqhM2ODTQjuhR24x__-254" value="" style="rounded=0;whiteSpace=wrap;html=1;fillColor=#f8cecc;strokeColor=#b85450;" vertex="1" parent="1">
          <mxGeometry x="2360" y="320" width="80" height="80" as="geometry" />
        </mxCell>
        <mxCell id="_hwqhM2ODTQjuhR24x__-255" value="" style="rounded=0;whiteSpace=wrap;html=1;fillColor=#f8cecc;strokeColor=#b85450;" vertex="1" parent="1">
          <mxGeometry x="2440" y="320" width="80" height="80" as="geometry" />
        </mxCell>
        <mxCell id="_hwqhM2ODTQjuhR24x__-256" value="" style="rounded=0;whiteSpace=wrap;html=1;fillColor=#e1d5e7;strokeColor=#9673a6;" vertex="1" parent="1">
          <mxGeometry x="2360" y="400" width="80" height="80" as="geometry" />
        </mxCell>
        <mxCell id="_hwqhM2ODTQjuhR24x__-257" value="" style="rounded=0;whiteSpace=wrap;html=1;fillColor=#e1d5e7;strokeColor=#9673a6;" vertex="1" parent="1">
          <mxGeometry x="2440" y="400" width="80" height="80" as="geometry" />
        </mxCell>
        <mxCell id="_hwqhM2ODTQjuhR24x__-258" value="" style="rounded=0;whiteSpace=wrap;html=1;fillColor=#f8cecc;strokeColor=#b85450;" vertex="1" parent="1">
          <mxGeometry x="2200" y="480" width="80" height="80" as="geometry" />
        </mxCell>
        <mxCell id="_hwqhM2ODTQjuhR24x__-259" value="" style="rounded=0;whiteSpace=wrap;html=1;fillColor=#f8cecc;strokeColor=#b85450;" vertex="1" parent="1">
          <mxGeometry x="2280" y="480" width="80" height="80" as="geometry" />
        </mxCell>
        <mxCell id="_hwqhM2ODTQjuhR24x__-260" value="" style="rounded=0;whiteSpace=wrap;html=1;fillColor=#f8cecc;strokeColor=#b85450;" vertex="1" parent="1">
          <mxGeometry x="2200" y="560" width="80" height="80" as="geometry" />
        </mxCell>
        <mxCell id="_hwqhM2ODTQjuhR24x__-261" value="" style="rounded=0;whiteSpace=wrap;html=1;fillColor=#f8cecc;strokeColor=#b85450;" vertex="1" parent="1">
          <mxGeometry x="2280" y="560" width="80" height="80" as="geometry" />
        </mxCell>
        <mxCell id="_hwqhM2ODTQjuhR24x__-262" value="" style="rounded=0;whiteSpace=wrap;html=1;fillColor=#f8cecc;strokeColor=#b85450;" vertex="1" parent="1">
          <mxGeometry x="2360" y="480" width="80" height="80" as="geometry" />
        </mxCell>
        <mxCell id="_hwqhM2ODTQjuhR24x__-263" value="" style="rounded=0;whiteSpace=wrap;html=1;fillColor=#f8cecc;strokeColor=#b85450;" vertex="1" parent="1">
          <mxGeometry x="2440" y="480" width="80" height="80" as="geometry" />
        </mxCell>
        <mxCell id="_hwqhM2ODTQjuhR24x__-264" value="" style="rounded=0;whiteSpace=wrap;html=1;fillColor=#f8cecc;strokeColor=#b85450;" vertex="1" parent="1">
          <mxGeometry x="2360" y="560" width="80" height="80" as="geometry" />
        </mxCell>
        <mxCell id="_hwqhM2ODTQjuhR24x__-265" value="" style="rounded=0;whiteSpace=wrap;html=1;fillColor=#f8cecc;strokeColor=#b85450;" vertex="1" parent="1">
          <mxGeometry x="2440" y="560" width="80" height="80" as="geometry" />
        </mxCell>
        <mxCell id="_hwqhM2ODTQjuhR24x__-266" value="" style="endArrow=none;dashed=1;html=1;rounded=0;strokeWidth=6;dashPattern=1 4;fillColor=#f8cecc;strokeColor=#b85450;" edge="1" parent="1">
          <mxGeometry width="50" height="50" relative="1" as="geometry">
            <mxPoint x="2065" y="478.95000000000005" as="sourcePoint" />
            <mxPoint x="2185" y="478.95000000000005" as="targetPoint" />
          </mxGeometry>
        </mxCell>
        <mxCell id="_hwqhM2ODTQjuhR24x__-267" value="" style="endArrow=none;dashed=1;html=1;rounded=0;strokeWidth=6;dashPattern=1 4;fillColor=#f8cecc;strokeColor=#b85450;" edge="1" parent="1">
          <mxGeometry width="50" height="50" relative="1" as="geometry">
            <mxPoint x="1880" y="660" as="sourcePoint" />
            <mxPoint x="1880" y="740" as="targetPoint" />
          </mxGeometry>
        </mxCell>
        <mxCell id="_hwqhM2ODTQjuhR24x__-268" value="" style="endArrow=none;dashed=1;html=1;rounded=0;strokeWidth=6;dashPattern=1 4;fillColor=#f8cecc;strokeColor=#b85450;" edge="1" parent="1">
          <mxGeometry width="50" height="50" relative="1" as="geometry">
            <mxPoint x="2360" y="660" as="sourcePoint" />
            <mxPoint x="2360" y="740" as="targetPoint" />
          </mxGeometry>
        </mxCell>
        <mxCell id="_hwqhM2ODTQjuhR24x__-269" value="" style="shape=flexArrow;endArrow=classic;startArrow=classic;html=1;rounded=0;" edge="1" parent="1">
          <mxGeometry width="100" height="100" relative="1" as="geometry">
            <mxPoint x="1640" y="1080" as="sourcePoint" />
            <mxPoint x="1640" y="320" as="targetPoint" />
          </mxGeometry>
        </mxCell>
        <mxCell id="_hwqhM2ODTQjuhR24x__-270" value="&lt;font style=&quot;font-size: 40px;&quot;&gt;Input Channel&lt;/font&gt;&lt;div style=&quot;font-size: 40px;&quot;&gt;&lt;font style=&quot;font-size: 40px;&quot;&gt;C&lt;/font&gt;&lt;/div&gt;" style="edgeLabel;html=1;align=center;verticalAlign=middle;resizable=0;points=[];" vertex="1" connectable="0" parent="_hwqhM2ODTQjuhR24x__-269">
          <mxGeometry x="-0.019" y="4" relative="1" as="geometry">
            <mxPoint y="1" as="offset" />
          </mxGeometry>
        </mxCell>
        <mxCell id="_hwqhM2ODTQjuhR24x__-271" value="" style="shape=flexArrow;endArrow=classic;startArrow=classic;html=1;rounded=0;" edge="1" parent="1">
          <mxGeometry width="100" height="100" relative="1" as="geometry">
            <mxPoint x="1640" y="80" as="sourcePoint" />
            <mxPoint x="1650" y="-800" as="targetPoint" />
          </mxGeometry>
        </mxCell>
        <mxCell id="_hwqhM2ODTQjuhR24x__-272" value="&lt;font style=&quot;font-size: 40px;&quot;&gt;N * H * W&lt;/font&gt;" style="edgeLabel;html=1;align=center;verticalAlign=middle;resizable=0;points=[];" vertex="1" connectable="0" parent="_hwqhM2ODTQjuhR24x__-271">
          <mxGeometry x="-0.019" y="4" relative="1" as="geometry">
            <mxPoint y="1" as="offset" />
          </mxGeometry>
        </mxCell>
        <mxCell id="_hwqhM2ODTQjuhR24x__-273" value="" style="shape=flexArrow;endArrow=classic;startArrow=classic;html=1;rounded=0;" edge="1" parent="1">
          <mxGeometry width="100" height="100" relative="1" as="geometry">
            <mxPoint x="1520" y="240" as="sourcePoint" />
            <mxPoint x="40" y="240" as="targetPoint" />
          </mxGeometry>
        </mxCell>
        <mxCell id="_hwqhM2ODTQjuhR24x__-274" value="&lt;font style=&quot;font-size: 40px;&quot;&gt;N * H * W&lt;/font&gt;" style="edgeLabel;html=1;align=center;verticalAlign=middle;resizable=0;points=[];" vertex="1" connectable="0" parent="_hwqhM2ODTQjuhR24x__-273">
          <mxGeometry x="-0.019" y="4" relative="1" as="geometry">
            <mxPoint y="1" as="offset" />
          </mxGeometry>
        </mxCell>
        <mxCell id="_hwqhM2ODTQjuhR24x__-275" value="" style="shape=flexArrow;endArrow=classic;startArrow=classic;html=1;rounded=0;" edge="1" parent="1">
          <mxGeometry width="100" height="100" relative="1" as="geometry">
            <mxPoint x="2520" y="240" as="sourcePoint" />
            <mxPoint x="1720" y="240" as="targetPoint" />
          </mxGeometry>
        </mxCell>
        <mxCell id="_hwqhM2ODTQjuhR24x__-276" value="&lt;span style=&quot;font-size: 40px;&quot;&gt;Ouput Channel&lt;/span&gt;&lt;div&gt;&lt;span style=&quot;font-size: 40px;&quot;&gt;M&lt;/span&gt;&lt;/div&gt;" style="edgeLabel;html=1;align=center;verticalAlign=middle;resizable=0;points=[];" vertex="1" connectable="0" parent="_hwqhM2ODTQjuhR24x__-275">
          <mxGeometry x="-0.019" y="4" relative="1" as="geometry">
            <mxPoint y="1" as="offset" />
          </mxGeometry>
        </mxCell>
      </root>
    </mxGraphModel>
  </diagram>
</mxfile>
